<?xml version="1.0" standalone="no"?>
<!DOCTYPE svg PUBLIC "-//W3C//DTD SVG 20010904//EN"
 "http://www.w3.org/TR/2001/REC-SVG-20010904/DTD/svg10.dtd">
<svg version="1.0" xmlns="http://www.w3.org/2000/svg"
 width="968.000000pt" height="968.000000pt" viewBox="0 0 968.000000 968.000000"
 preserveAspectRatio="xMidYMid meet">
<metadata>
Created by potrace 1.14, written by Peter Selinger 2001-2017
</metadata>
<g transform="translate(0.000000,968.000000) scale(0.100000,-0.100000)"
fill="#000000" stroke="none">
<path d="M6923 9662 c-6 -4 -55 -48 -109 -99 -55 -50 -115 -106 -134 -123 -19
-18 -87 -80 -150 -139 -63 -58 -134 -124 -158 -146 -49 -45 -139 -129 -194
-181 l-38 -35 -1 -122 c-1 -67 -1 -126 0 -130 1 -4 1 -18 1 -30 1 -94 1 -164
1 -177 -1 -8 -1 -44 0 -80 0 -36 0 -72 0 -80 -1 -14 0 -128 0 -160 1 -34 0
-786 0 -800 0 -8 -1 -44 0 -80 0 -36 0 -72 0 -80 -1 -8 -1 -44 0 -80 0 -36 0
-72 0 -80 -1 -14 0 -128 0 -160 1 -34 0 -786 0 -800 0 -8 -1 -44 0 -80 0 -36
0 -72 0 -80 -1 -8 -1 -44 0 -80 0 -36 0 -72 0 -80 -1 -14 0 -128 0 -160 1 -34
0 -786 0 -800 -1 -13 0 -119 0 -160 1 -34 0 -786 0 -800 -1 -13 0 -119 0 -160
1 -34 0 -786 0 -800 -1 -20 0 -143 1 -155 0 -5 -1 -14 -2 -20 -7 -30 1 -1896
9 -1893 7 3 58 48 251 228 21 19 84 78 140 130 57 52 115 106 130 120 15 14
72 67 127 118 56 51 110 101 121 111 20 17 21 28 22 227 0 115 0 313 1 439 1
127 1 237 0 245 0 8 0 116 0 240 1 124 1 232 1 240 -1 8 -1 188 0 400 0 212 0
392 -1 400 0 8 0 116 0 240 1 124 1 232 1 240 0 8 -1 332 0 720 0 388 0 712
-1 720 0 8 0 116 0 240 1 124 1 232 1 240 0 8 0 476 0 1040 0 564 0 1032 -1
1040 0 8 0 116 0 240 1 124 1 230 1 235 -3 117 -1 968 2 974 8 12 -9 30 -21
23z"/>
<path d="M2521 9595 c-1 -19 -2 -42 -1 -50 0 -8 0 -23 0 -32 2 -54 1 -151 0
-173 -1 -14 -1 -31 -1 -37 2 -34 3 -172 1 -203 -1 -14 -1 -31 -1 -37 2 -34 3
-172 1 -203 -1 -14 -1 -31 -1 -37 2 -34 3 -172 1 -203 -1 -14 -1 -31 -1 -37 2
-34 3 -172 1 -203 -1 -14 -1 -31 -1 -37 2 -34 3 -172 1 -203 -1 -14 -1 -31 -1
-37 2 -34 3 -172 1 -203 -1 -14 -1 -31 -1 -37 2 -34 3 -172 1 -203 -1 -14 -1
-31 -1 -37 2 -34 3 -172 1 -203 -1 -14 -1 -31 -1 -37 2 -27 2 -40 1 -89 l-2
-52 396 -396 c218 -218 398 -396 400 -396 2 0 4 16 4 36 0 19 2 38 5 40 3 3 2
18 -3 32 -4 15 -4 37 1 49 4 12 4 25 -1 28 -5 3 -5 18 -1 33 4 15 5 38 1 52
-4 14 -3 35 1 47 5 12 4 25 -1 28 -5 3 -5 18 -1 33 4 15 5 38 1 52 -4 14 -3
35 1 47 5 12 4 25 -1 28 -5 3 -5 18 -1 33 4 15 5 38 1 52 -4 14 -3 35 1 47 5
12 4 25 -1 28 -5 3 -5 18 -1 33 4 15 5 38 1 52 -4 14 -3 35 1 47 5 12 4 25 -1
28 -5 3 -5 18 -1 33 4 15 5 38 1 52 -4 14 -3 35 1 47 5 12 4 25 -1 28 -5 3 -5
18 -1 33 4 15 5 38 1 52 -4 14 -3 35 1 47 5 12 4 25 -1 28 -5 3 -5 18 -1 33 4
15 4 39 0 54 -4 15 -5 29 -2 32 3 2 4 53 3 113 0 59 -1 115 -1 123 -1 332 0
465 1 687 l1 202 -395 395 c-218 218 -398 396 -400 396 -2 0 -5 -16 -5 -35z"/>
<path d="M660 4395 l0 -4395 398 397 397 398 5 3034 5 3034 1672 -1673 c920
-920 1671 -1676 1668 -1680 -3 -5 -1 -11 3 -14 9 -5 1106 1086 1122 1115 4 8
8 265 8 572 l-1 559 -499 -499 c-275 -274 -524 -523 -555 -555 l-55 -56 -2079
2079 c-1143 1143 -2081 2079 -2084 2079 -3 0 -5 -1978 -5 -4395z"/>
<path d="M8595 8398 c-214 -215 -641 -641 -947 -946 -307 -306 -558 -559 -559
-562 -4 -19 -3 -1127 1 -1124 3 2 253 252 556 555 l552 551 0 -56 c-1 -31 2
-59 5 -62 3 -3 2 -17 -3 -30 -6 -16 -6 -24 1 -24 6 0 6 -6 0 -18 -5 -10 -6
-24 -1 -31 4 -8 5 -25 1 -40 -3 -14 -5 -39 -4 -56 6 -61 5 -134 -2 -144 -3 -6
-2 -11 4 -11 5 0 7 -11 3 -27 -7 -27 -7 -67 0 -145 2 -21 0 -38 -4 -38 -3 0
-3 -12 1 -27 4 -16 4 -40 0 -55 -4 -16 -3 -28 1 -28 5 0 6 -12 2 -27 -7 -27
-7 -67 0 -145 2 -21 1 -38 -3 -38 -3 0 -3 -22 1 -50 3 -27 2 -54 -3 -59 -5 -5
-5 -11 2 -15 7 -4 7 -15 1 -31 -5 -14 -5 -27 0 -30 5 -3 5 -18 2 -33 -4 -15
-6 -40 -5 -57 2 -16 3 -43 2 -60 0 -16 0 -36 0 -42 1 -16 1 -30 2 -118 0 -38
2 -71 4 -74 3 -2 0 -10 -6 -17 -7 -8 -7 -14 0 -18 7 -4 7 -15 1 -31 -5 -14 -5
-27 0 -30 5 -3 5 -18 2 -33 -4 -15 -6 -40 -5 -57 2 -16 3 -43 2 -60 0 -16 0
-36 0 -42 1 -16 1 -30 2 -118 0 -38 2 -71 4 -74 3 -2 0 -10 -6 -17 -7 -8 -7
-14 0 -18 7 -4 7 -15 1 -31 -5 -14 -5 -27 0 -30 5 -3 5 -18 2 -33 -4 -15 -6
-40 -5 -57 2 -16 3 -43 2 -60 0 -16 0 -36 0 -42 1 -16 1 -30 2 -118 0 -38 2
-71 4 -74 3 -2 0 -10 -6 -17 -7 -8 -7 -14 0 -18 7 -4 7 -15 1 -31 -5 -14 -5
-27 0 -30 5 -3 5 -18 2 -33 -4 -15 -6 -40 -5 -57 2 -16 3 -43 2 -60 0 -16 0
-36 0 -42 2 -27 2 -40 2 -103 -1 -36 -1 -74 -1 -85 0 -114 2 -160 5 -164 3 -2
0 -10 -6 -17 -7 -8 -7 -14 0 -18 7 -4 7 -15 1 -31 -5 -14 -5 -27 0 -30 5 -3 5
-18 2 -33 -4 -15 -6 -40 -5 -57 2 -16 3 -43 2 -60 0 -16 0 -36 0 -42 2 -27 2
-40 2 -103 -1 -36 -1 -74 -1 -85 0 -114 2 -160 5 -164 3 -2 0 -10 -6 -17 -7
-8 -7 -14 0 -18 7 -4 7 -15 1 -31 -5 -14 -5 -27 0 -30 5 -3 5 -18 2 -33 -4
-15 -6 -40 -5 -57 2 -16 3 -43 2 -60 0 -16 0 -36 0 -42 2 -27 2 -40 2 -103 -1
-36 -1 -74 -1 -85 0 -114 2 -160 5 -164 3 -2 0 -10 -6 -17 -7 -8 -7 -14 0 -18
7 -4 7 -15 1 -31 -5 -14 -5 -27 0 -30 5 -3 5 -18 2 -33 -4 -15 -6 -40 -5 -57
2 -16 3 -43 2 -60 0 -16 0 -36 0 -42 1 -16 1 -30 2 -118 0 -38 2 -71 4 -74 3
-2 0 -10 -6 -17 -7 -8 -7 -14 0 -18 7 -4 7 -15 1 -31 -5 -14 -5 -27 0 -30 5
-3 5 -18 2 -33 -4 -15 -6 -40 -5 -57 2 -16 3 -43 2 -60 0 -16 0 -36 0 -42 1
-16 1 -30 2 -118 0 -38 2 -71 4 -74 3 -2 0 -10 -6 -17 -7 -8 -7 -14 0 -18 7
-4 7 -15 1 -31 -5 -14 -5 -27 0 -30 5 -3 5 -18 2 -33 -4 -15 -6 -40 -5 -57 2
-16 3 -43 2 -60 0 -16 0 -36 0 -42 1 -16 1 -30 2 -118 0 -38 2 -71 4 -74 3 -2
0 -10 -6 -17 -7 -8 -7 -14 0 -18 7 -4 7 -15 1 -31 -5 -14 -5 -27 0 -30 5 -3 5
-18 1 -33 -4 -15 -6 -33 -3 -41 8 -22 802 -812 803 -799 1 7 1 17 0 22 -6 31
-6 76 -1 76 4 0 4 18 0 39 -4 21 -3 46 2 55 6 10 5 16 -1 16 -7 0 -7 8 -1 24
5 13 6 26 4 29 -9 8 -10 70 -3 98 4 15 3 32 -1 40 -5 7 -4 21 1 31 6 12 6 18
0 18 -7 0 -7 8 -1 24 5 13 7 26 4 29 -8 8 -11 77 -3 77 4 0 4 12 0 28 -4 15
-5 38 -1 52 3 13 3 45 0 71 -3 25 -3 57 1 71 4 14 3 32 -1 39 -5 7 -5 20 -1
28 5 9 5 25 1 36 -4 11 -4 32 1 47 4 14 5 29 2 32 -3 3 -5 38 -4 78 1 40 2 79
1 86 0 17 0 51 1 107 0 17 0 37 0 45 0 8 -1 47 0 85 0 39 0 76 -1 83 0 17 0
51 1 107 0 17 0 37 0 45 0 8 -1 47 0 85 0 39 0 76 -1 83 0 17 0 51 1 107 0 42
0 45 -3 88 -2 20 0 37 3 37 3 0 3 18 -1 39 -4 21 -3 46 2 55 6 10 5 16 -1 16
-7 0 -7 8 -1 24 5 13 6 26 4 29 -9 8 -10 70 -3 98 4 15 3 32 -1 40 -5 7 -4 21
1 31 6 12 6 18 0 18 -7 0 -7 8 -1 24 5 13 7 26 4 29 -8 7 -11 77 -4 77 4 0 4
18 0 39 -4 21 -3 46 2 55 6 10 5 16 -1 16 -7 0 -7 8 -1 24 5 13 6 26 4 29 -9
8 -10 70 -3 98 4 15 3 32 -1 40 -5 7 -4 21 1 31 6 12 6 18 0 18 -7 0 -7 8 -1
24 5 13 7 26 4 29 -8 7 -11 77 -4 77 4 0 4 18 0 39 -4 21 -3 46 2 55 6 10 5
16 -1 16 -7 0 -7 8 -1 24 5 13 6 26 4 29 -9 8 -10 70 -3 98 4 15 3 32 -1 40
-5 7 -4 21 1 31 6 12 6 18 0 18 -7 0 -7 8 -1 24 5 13 7 26 4 29 -8 7 -11 77
-4 77 4 0 4 18 0 39 -4 21 -3 46 2 55 6 10 5 16 -1 16 -7 0 -7 8 -1 24 5 13 6
26 4 29 -9 8 -10 70 -3 98 4 15 3 32 -1 40 -5 7 -4 21 1 31 6 12 6 18 0 18 -7
0 -7 8 -1 24 5 13 7 26 4 29 -8 7 -11 77 -4 77 4 0 4 18 0 39 -4 21 -3 46 2
55 6 10 5 16 -1 16 -7 0 -7 8 -1 24 5 13 6 26 4 29 -9 8 -10 70 -3 98 4 15 3
32 -1 40 -5 7 -4 21 1 31 6 12 6 18 0 18 -7 0 -7 8 -1 24 5 13 7 26 4 29 -8 8
-11 77 -3 77 4 0 4 12 0 28 -4 15 -5 38 -1 52 3 13 3 45 0 71 -3 25 -3 57 1
71 4 14 3 32 -1 39 -5 7 -5 20 -1 28 5 9 5 25 1 36 -4 11 -4 32 1 47 4 14 5
29 2 32 -3 3 -5 38 -4 78 1 40 2 79 1 86 0 17 0 51 1 107 0 17 0 37 0 45 0 8
-1 47 0 85 0 39 0 76 -1 83 0 17 0 51 1 107 0 17 0 37 0 45 0 8 -1 47 0 85 0
39 0 76 -1 83 0 17 0 51 1 107 0 42 0 45 -3 88 -2 20 0 37 3 37 3 0 3 18 -1
39 -4 21 -3 46 2 55 6 10 5 16 -1 16 -7 0 -7 8 -1 24 5 13 6 26 4 29 -9 8 -10
70 -3 98 4 15 3 32 -1 40 -5 7 -4 21 1 31 6 12 6 18 0 18 -7 0 -7 8 -1 24 5
13 7 26 4 29 -8 7 -11 77 -4 77 4 0 4 18 0 39 -4 21 -3 46 2 55 6 10 5 16 -1
16 -7 0 -7 8 -1 24 5 13 6 26 4 29 -9 8 -10 70 -3 98 4 15 3 32 -1 40 -5 7 -4
21 1 31 6 12 6 18 0 18 -7 0 -7 8 -1 24 5 13 7 26 4 29 -8 7 -11 77 -4 77 4 0
4 18 0 39 -4 21 -3 46 2 55 6 10 5 16 -1 16 -7 0 -7 8 -1 24 5 13 6 26 4 29
-9 8 -10 70 -3 98 4 15 3 32 -1 40 -5 7 -4 21 1 31 6 12 6 18 0 18 -7 0 -7 8
-1 24 5 13 7 26 4 29 -8 7 -11 77 -4 77 4 0 4 18 0 39 -4 21 -3 46 2 55 6 10
5 16 -1 16 -7 0 -7 8 -1 24 5 13 6 26 4 29 -9 8 -10 70 -3 98 4 15 3 32 -1 40
-5 7 -4 21 1 31 6 12 6 18 0 18 -7 0 -7 8 -1 24 5 13 7 26 4 29 -8 7 -11 77
-4 77 4 0 4 18 0 39 -4 21 -3 46 2 55 6 10 5 16 -1 16 -7 0 -7 8 -1 24 5 13 6
26 4 29 -9 8 -10 70 -3 98 4 15 3 32 -1 40 -5 7 -4 21 1 31 6 12 6 18 0 18 -7
0 -7 8 -1 24 5 13 7 26 4 29 -8 8 -11 77 -3 77 4 0 4 12 0 28 -4 15 -5 38 -1
52 3 13 3 45 0 71 -3 25 -3 57 1 71 4 14 3 32 -1 39 -5 7 -5 20 -1 28 5 9 5
25 1 36 -4 11 -4 32 1 47 4 14 5 29 1 32 -3 3 -4 31 -3 61 1 30 -2 55 -6 54
-4 0 -183 -176 -398 -391z"/>
<path d="M2478 5533 c-2 -21 -1 -74 2 -118 3 -44 3 -105 0 -135 -3 -30 -3 -86
0 -123 3 -38 3 -70 1 -73 -3 -2 -4 -23 -3 -47 0 -23 1 -94 1 -157 0 -63 0
-124 0 -135 0 -37 0 -140 -1 -150 0 -5 0 -57 1 -115 0 -58 0 -112 0 -120 0 -8
0 -80 0 -160 0 -80 0 -152 0 -160 0 -8 0 -80 0 -160 0 -80 0 -152 0 -160 0 -8
0 -80 0 -160 0 -80 0 -152 0 -160 0 -8 0 -80 0 -160 0 -80 0 -152 0 -160 0 -8
0 -80 0 -160 0 -80 0 -152 0 -160 0 -8 0 -80 0 -160 0 -80 0 -152 0 -160 -1
-59 0 -324 2 -365 1 -27 1 -63 1 -80 -1 -33 -1 -171 -1 -195 0 -8 0 -51 -1
-95 0 -44 1 -92 3 -106 3 -19 117 -139 400 -422 l396 -396 1 117 c1 165 0 235
-6 244 -3 4 -2 8 3 8 4 0 7 28 6 62 -3 126 -4 145 -4 233 -1 50 -1 96 -1 103
3 119 2 225 -3 232 -3 6 -3 10 2 10 4 0 7 26 6 57 -1 32 -2 110 -2 173 0 171
-2 233 -7 242 -3 4 -2 8 3 8 4 0 7 26 6 57 -1 32 -2 110 -2 173 0 171 -2 233
-7 242 -3 4 -2 8 3 8 4 0 7 26 6 57 -1 32 -2 110 -2 173 0 63 0 129 -1 145 -1
17 -2 36 -1 43 0 11 0 101 0 137 0 8 0 62 1 120 0 58 -2 110 -5 115 -3 6 -3
10 2 10 4 0 7 26 6 57 -1 32 -2 110 -2 173 0 171 -2 233 -7 242 -3 4 -2 8 3 8
4 0 7 26 6 57 -1 32 -2 110 -2 173 0 63 0 129 -1 145 -1 17 -2 37 -1 45 2 60
0 244 -3 248 -2 2 -1 16 4 31 4 16 3 35 -2 46 -11 18 -785 795 -793 795 -2 0
-5 -17 -7 -37z"/>
</g>
</svg>
